<?xml version="1.0" encoding="UTF-8"?>
<svg id="Layer_2" data-name="Layer 2" xmlns="http://www.w3.org/2000/svg" xmlns:xlink="http://www.w3.org/1999/xlink" viewBox="0 0 577.64 614.06">
  <defs>
    <style>
      .cls-1 {
        letter-spacing: -.05em;
      }

      .cls-1, .cls-2, .cls-3, .cls-4 {
        font-family: Intro, 'Intro ';
      }

      .cls-5 {
        font-size: 80.54px;
      }

      .cls-5, .cls-6 {
        fill: #233147;
      }

      .cls-7, .cls-8 {
        fill: #eb5955;
        font-family: SupersonicRocketship, 'Supersonic Rocketship';
        font-size: 80px;
      }

      .cls-2 {
        letter-spacing: -.02em;
      }

      .cls-9 {
        font-family: MyriadPro-Regular, 'Myriad Pro';
      }

      .cls-9, .cls-4 {
        letter-spacing: -.02em;
      }

      .cls-3 {
        letter-spacing: .01em;
      }

      .cls-8 {
        stroke: #fff;
        stroke-linecap: round;
        stroke-linejoin: round;
        stroke-width: 17px;
      }
    </style>
  </defs>
  <g id="_10" data-name="10">
    <text class="cls-5" transform="translate(0 234.15)"><tspan class="cls-2" x="0" y="0">Listo</tspan><tspan class="cls-9" x="232.77" y="0">/</tspan><tspan class="cls-2" x="258.78" y="0">a </tspan><tspan class="cls-1" x="335.05" y="0">p</tspan><tspan class="cls-4" x="386.84" y="0">a</tspan><tspan class="cls-3" x="442.58" y="0">r</tspan><tspan class="cls-2" x="499.76" y="0">a </tspan></text>
    <g>
      <image width="999" height="925" transform="translate(98.93 258.27) scale(.35)" xlink:href="../../e4k logos/Logo_0000_english4kids-vector.png"/>
      <text class="cls-8" transform="translate(138.63 575.28)"><tspan x="0" y="0">Masters</tspan></text>
      <text class="cls-7" transform="translate(138.06 575.28)"><tspan x="0" y="0">Masters</tspan></text>
    </g>
    <g id="megaphone_outline_icon" data-name="megaphone outline icon">
      <g id="Outline-2">
        <path class="cls-6" d="M197.17,91.12l11.04,44.16c1.05,4.23,4.85,7.2,9.21,7.2h12.28c5.25,0,9.5-4.25,9.5-9.5,0-.78-.1-1.55-.28-2.3l-2.59-10.36h7.43c5.25,0,9.5-4.25,9.5-9.5,0-.78-.1-1.55-.28-2.31l-1.34-5.34,43.27,18.11c.51,6.96,6.56,12.19,13.52,11.68,6.62-.48,11.73-6,11.71-12.64v-35.11c10.33-1.74,17.3-11.52,15.57-21.85-1.34-7.98-7.59-14.23-15.57-15.57V12.67C320.15,5.69,314.51.02,307.54,0c-6.63-.02-12.15,5.09-12.63,11.71l-70.39,29.46h-21.53c-13.98,0-25.32,11.32-25.33,25.3,0,11.75,8.08,21.96,19.52,24.66ZM329.63,66.49c-.02,5.76-3.92,10.78-9.5,12.22v-24.43c5.58,1.44,9.48,6.46,9.5,12.22ZM232.2,134.93c-.6.77-1.52,1.22-2.49,1.22h-12.28c-1.45,0-2.72-.99-3.07-2.4l-10.48-41.93h18.8l10.1,40.39c.24.95.03,1.95-.58,2.71ZM246.83,110.05c.42,1.71-.63,3.43-2.34,3.84-.24.06-.48.09-.73.09h-9.01l-4.99-19.97,14.59,6.11,2.48,9.93ZM301.14,12.67c0-3.5,2.84-6.33,6.33-6.33s6.33,2.84,6.33,6.33v107.65c0,3.5-2.84,6.33-6.33,6.33s-6.33-2.84-6.33-6.33V12.67ZM294.81,114.37l-66.49-27.82v-40.11l66.49-27.82v95.76ZM202.99,47.5h19v37.99h-19c-10.49,0-19-8.51-19-19s8.51-19,19-19Z"/>
        <circle class="cls-6" cx="285.31" cy="33.25" r="3.17"/>
        <path class="cls-6" d="M249.77,47.76c.68,1.61,2.53,2.37,4.14,1.7l20.71-8.67c1.61-.69,2.36-2.54,1.67-4.15-.68-1.6-2.52-2.35-4.12-1.69l-20.71,8.67c-1.61.68-2.37,2.53-1.7,4.14Z"/>
        <path class="cls-6" d="M364.46,63.33h-19c-1.75,0-3.17,1.42-3.17,3.17s1.42,3.17,3.17,3.17h19c1.75,0,3.17-1.42,3.17-3.17s-1.42-3.17-3.17-3.17Z"/>
        <path class="cls-6" d="M362.22,16.76l-19.38,19.38c-1.22,1.25-1.19,3.26.07,4.48,1.23,1.19,3.18,1.19,4.41,0l19.38-19.38c1.21-1.26,1.18-3.26-.08-4.48-1.23-1.19-3.17-1.19-4.4,0h0Z"/>
        <path class="cls-6" d="M347.32,92.37c-1.25-1.22-3.25-1.2-4.48.05-1.2,1.23-1.2,3.2,0,4.43l19.38,19.38c1.26,1.21,3.26,1.18,4.48-.08,1.19-1.23,1.19-3.17,0-4.4l-19.38-19.38Z"/>
      </g>
    </g>
  </g>
</svg>